<?xml version="1.0" encoding="utf-8"?>
<!-- Generator: Adobe Illustrator 17.0.0, SVG Export Plug-In . SVG Version: 6.00 Build 0)  -->
<!DOCTYPE svg PUBLIC "-//W3C//DTD SVG 1.1//EN" "http://www.w3.org/Graphics/SVG/1.1/DTD/svg11.dtd">
<svg version="1.1" id="Layer_1" xmlns="http://www.w3.org/2000/svg" xmlns:xlink="http://www.w3.org/1999/xlink" x="0px" y="0px"
	 width="423.311px" height="315.098px" viewBox="0 0 423.311 315.098" enable-background="new 0 0 423.311 315.098"
	 xml:space="preserve">
<path d="M172.513,132.45c0.514,0.061,0.839,0.13,1.165,0.134c1.303,0.013,2.607,0.005,4.105,0.005c0-26.982,0-53.821,0-80.779
	c9.011,0,17.827,0,26.649,0c0.366,1.176,0.536,99.997,0.156,103.22c-0.405,0.045-0.84,0.135-1.275,0.136
	c-4.393,0.01-8.787-0.038-13.179,0.035c-1.184,0.02-1.684-0.445-2.123-1.47c-0.825-1.929-1.824-3.784-2.825-5.82
	c-0.343,0.33-0.625,0.567-0.866,0.84c-3.363,3.814-7.464,6.384-12.567,6.958c-4.826,0.543-9.688,0.588-14.439-0.614
	c-5.751-1.455-9.104-5.338-10.556-10.981c-0.77-2.993-1.111-6.047-1.113-9.129c-0.013-27.158-0.008-54.316-0.008-81.474
	c0-0.509,0-1.017,0-1.495c1.314-0.395,24.422-0.5,26.875-0.12C172.513,78.699,172.513,105.535,172.513,132.45z"/>
<path d="M317.144,155.08c-7.559,0-14.901,0-22.355,0c-3.899-15.658-7.783-31.256-11.667-46.855c-0.113,0.018-0.227,0.037-0.34,0.055
	c0,15.538,0,31.076,0,46.578c-1.324,0.379-20.754,0.467-22.762,0.138c-0.33-1.268-0.399-101.135-0.05-103.185
	c7.763,0,15.547,0,23.501,0c3.473,14.147,6.949,28.306,10.425,42.464c0.115-0.017,0.23-0.034,0.345-0.05c0-14.101,0-28.203,0-42.419
	c7.693,0,15.242,0,22.904,0C317.144,86.237,317.144,120.592,317.144,155.08z"/>
<path d="M110.238,205.505c-9.072,0-17.833,0-26.733,0c0-7.51,0-14.908,0-22.53c-1.74-0.128-3.353-0.099-5.089,0.004
	c0,19.086,0,38.103,0,57.232c1.67,0,3.299,0,5.14,0c0.239-4.124,0.075-8.263,0.105-12.395c0.03-4.091,0.007-8.183,0.007-12.378
	c9.004,0,17.819,0,26.764,0c0.05,0.429,0.143,0.861,0.144,1.293c0.009,8.271,0.04,16.543-0.009,24.814
	c-0.022,3.719-0.555,7.379-1.969,10.853c-2.059,5.059-5.874,8.148-11.049,9.629c-2.582,0.739-5.222,1.102-7.921,1.12
	c-4.557,0.029-9.115,0.257-13.668,0.168c-3.4-0.066-6.827-0.097-10.176-0.908c-5.363-1.299-9.664-4-12.058-9.166
	c-1.48-3.193-2.209-6.592-2.227-10.103c-0.1-19.616-0.204-39.231-0.194-58.847c0.002-3.566,0.161-7.161,1.072-10.672
	c1.868-7.195,6.518-11.402,13.692-12.951c2.679-0.579,5.397-0.815,8.138-0.796c5.474,0.038,10.95,0.009,16.422,0.135
	c3.263,0.075,6.446,0.762,9.436,2.115c4.786,2.165,7.66,5.964,9.046,10.945c0.813,2.92,1.153,5.906,1.139,8.945
	c-0.034,7.13-0.011,14.261-0.011,21.391C110.238,204.072,110.238,204.743,110.238,205.505z"/>
<path d="M236.856,114.892c0,5.766,0,11.237,0,16.936c1.512,0.152,3.032,0.059,4.544,0.074c1.597,0.016,3.195,0.004,4.792,0.004
	c1.54,0,3.081,0,4.621,0c1.527,0,3.053,0,4.698,0c0,7.804,0,15.412,0,23.143c-15.202,0-30.342,0-45.61,0
	c0-34.421,0-68.782,0-103.251c15.123,0,30.161,0,45.198,0c0.364,1.209,0.47,20.543,0.095,23.009c-6.034,0-12.105,0-18.281,0
	c0,5.756,0,11.308,0,17.05c5.868,0,11.657,0,17.566,0c0,7.736,0,15.284,0,23.035c-2.982,0-5.877,0-8.771,0
	C242.813,114.892,239.916,114.892,236.856,114.892z"/>
<path d="M237.246,263.3c-8.76,0-17.25,0-25.915,0c0.087-0.554,0.115-1.043,0.244-1.503c2.191-7.839,4.384-15.678,6.61-23.507
	c0.29-1.018,0.324-1.97,0.051-2.995c-2.535-9.515-5.046-19.035-7.559-28.556c-2.848-10.787-5.688-21.576-8.537-32.363
	c-1.148-4.348-2.31-8.693-3.461-13.04c-0.1-0.378-0.169-0.764-0.251-1.14c1.238-0.393,26.137-0.521,28.869-0.14
	c1.728,11.254,3.465,22.568,5.203,33.882c0.097,0.01,0.194,0.019,0.291,0.029c1.743-11.313,3.485-22.626,5.234-33.981
	c8.935,0,17.687,0,26.643,0C255.509,194.495,246.39,228.849,237.246,263.3z"/>
<path d="M95.628,117.985c-5.789,0-11.465,0-17.311,0c0,12.43,0,24.667,0,36.853c-1.385,0.401-24.392,0.498-26.574,0.162
	c-0.316-1.259-0.415-100.842-0.085-103.185c14.948,0,29.914,0,45.003,0c0,7.597,0,15.153,0,22.933
	c-2.013,0.19-4.045,0.064-6.067,0.087c-1.996,0.023-3.992,0.005-5.989,0.005c-2.038,0-4.077,0-6.209,0c0,6.724,0,13.251,0,19.965
	c5.758,0,11.435,0,17.233,0C95.628,102.545,95.628,110.101,95.628,117.985z"/>
<path d="M158.078,182.707c-3.965,0-7.712,0-11.415,0c-0.411-1.308-0.534-20.118-0.17-22.71c16.655,0,33.329,0,50.13,0
	c0,7.477,0,14.916,0,22.54c-1.884,0.298-3.806,0.092-5.713,0.13c-1.866,0.037-3.733,0.008-5.757,0.008c0,26.915,0,53.639,0,80.307
	c-1.352,0.454-23.066,0.627-26.863,0.253c-0.065-0.336-0.176-0.705-0.2-1.079c-0.036-0.568-0.012-1.14-0.012-1.71
	c0-25.149,0-50.298,0-75.447C158.078,184.278,158.078,183.555,158.078,182.707z"/>
<path d="M333.066,74.836c-4.05,0-7.796,0-11.501,0c-0.375-1.455-0.516-19.033-0.221-22.828c0.041-0.039,0.082-0.079,0.124-0.118
	c0.042-0.038,0.085-0.108,0.127-0.108c16.03-0.034,32.06-0.064,48.09-0.089c0.511-0.001,1.023,0.034,1.533,0.071
	c0.098,0.007,0.19,0.103,0.379,0.214c0,7.502,0,15.059,0,22.798c-3.886,0-7.682,0-11.724,0c-0.115,3.508-0.043,6.848-0.056,10.185
	c-0.013,3.309-0.003,6.618-0.003,9.927c0,3.366,0,6.732,0,10.099c0,3.309,0,6.618,0,9.927c0,3.366,0,6.732,0,10.099
	c0,3.309,0,6.618,0,9.927c0,3.366,0,6.732,0,10.099c0,3.298,0,6.596,0,10.012c-8.972,0-17.774,0-26.749,0
	C333.066,128.33,333.066,101.71,333.066,74.836z"/>
<path d="M101.014,51.775c8.904,0,17.668,0,26.623,0c0,26.73,0,53.4,0,80.303c4.932,0.154,9.692-0.014,14.557,0.1
	c0,7.648,0,15.154,0,22.687c-0.021,0.019-0.063,0.058-0.106,0.096c-0.042,0.037-0.082,0.101-0.128,0.106
	c-0.395,0.041-0.791,0.1-1.187,0.1c-13.065-0.003-26.131-0.011-39.196-0.026c-0.156,0-0.311-0.104-0.564-0.193
	C101.014,120.632,101.014,86.313,101.014,51.775z"/>
<path d="M142.223,160.021c0,34.411,0,68.723,0,103.284c-8.91,0.106-17.771,0.026-26.589,0.052
	c-0.421-1.328-0.572-100.353-0.2-103.187C116.655,159.805,139.086,159.659,142.223,160.021z"/>
</svg>
